<?xml version="1.0" encoding="UTF-8" standalone="no"?>
<svg xmlns="http://www.w3.org/2000/svg" version="1.1" width="2000" height="1710.8038">
  <g transform="translate(-175.85374,1242.0261)">
    <g transform="matrix(1.6666667,0,0,1.6666667,-117.23582,-312.51846)">
      <g transform="matrix(0.59999999,0,0,0.59999999,450.2908,-372.69454)" style="fill:#0071bc;fill-opacity:1">
        <path d="m 35.767617,-307.55723 c -196.581747,9.6944 -381.627847,143.2186 -448.871427,329.231261 -62.71618,139.870849 -37.99195,294.542549 -42.98952,442.709449 -0.64457,284.95529 4.15366,569.88362 0,854.79792 5.61852,20.9889 -13.02348,111.6524 12.87995,74.3843 50.7618,-92.6556 142.78108,-155.4135 248.44351,-164.7981 237.614407,-19.7471 476.81924,-9.26 715.23003,-11.9201 172.8811,-1.7027 346.0637,3.5163 518.74394,-2.8151 163.4999,-27.8754 336.4781,-102.1018 415.8807,-257.34608 62.6743,-104.83817 94.5273,-226.51644 86.2211,-348.45935 -2.6887,-149.41303 6.3011,-299.39162 -6.4965,-448.33569 -20.8724,-169.638249 -104.916,-345.66951 -267.9432,-419.23331 -139.8427,-70.2121 -298.88394,-42.5288 -449.23094,-48.2152 -260.6226,0 -521.2451,0 -781.867643,0 z" style="fill:#0071bc;fill-opacity:1" />
      </g>
      <path d="m 466.5625,-391.9375 c -38.5284,0.059 -77.06149,0.53154 -115.5625,0.15625 l 0,294.875 L 351,198 493.90625,198 C 494.35226,133.81103 494.80406,69.62648 495.25,5.4375 541.07451,69.62648 586.89428,133.811 632.71875,198 c 56.72315,-0.33895 113.51682,0.93227 170.1875,-1.3125 C 753.5536,132.82542 702.52674,70.26435 652.25,7.125 c -12.02531,-9.2530799 -2.46728,-11.7239699 8.125,-13.875 58.24067,-12.85474 103.53351,-61.040136 120.875,-117 14.70842,-54.01278 12.38299,-114.57745 -14.0625,-164.75 -28.38144,-57.39284 -89.045,-94.25205 -152.1875,-98.96875 -49.38926,-3.95395 -98.90099,-4.54458 -148.4375,-4.46875 z m 362.34375,0.15625 0,127.65625 c 53.5921,0.0141 107.18925,-0.0457 160.78125,0.0312 21.4871,1.67011 47.096,-3.48789 65.75,4.4375 -70.31162,152.67993 -143.0116,304.266714 -213.75,456.75 54.874,1.573 109.81633,0.66907 164.7187,0.90625 69.1638,-158.289996 138.3051,-316.585 207.4688,-474.875 1.3147,-38.06569 0.1868,-76.64442 0.5625,-114.90625 l -385.53125,0 z M 494.9375,-259.5625 c 33.84042,2.15307 68.75432,-1.95405 101.53125,7.875 31.08208,9.10055 53.15021,40.63152 49.3125,73.09375 3.5968,33.15505 -18.58038,64.57113 -49.3125,75.71875 l -4.5,1.625 c -32.02148,7.354284 -65.34886,4.3485 -98,6.125 l 0,-136.25 c 0.64518,-9.07002 -1.28139,-20.76484 0.96875,-28.1875 z" style="fill:#ffffff" />
    </g>
  </g>
</svg>
